# xmcd CD database file
#
# Track frame offsets:
#	150
#	26384
#	43071
#	63021
#	83496
#	101796
#	124519
#	137879
#
# Disc length: 2449 seconds
#
# Revision: 1
# Processed by: cddbd v1.5.2PL0 Copyright (c) Steve Scherf et al.
# Submitted via: CDex 1.70beta3
#
DISCID=5e098f08
DTITLE=sinfonia - 拝啓 初音様
DYEAR=2003
DGENRE=Doujin
TTITLE0=Red tint - transu mix -
TTITLE1=Red tint - afropia mix -
TTITLE2=Red tint - rain mix -
TTITLE3=Throwing into the banquet - MFU mix -
TTITLE4=World - the world saga mix -
TTITLE5=Atlach=Nacha - with YM 2th -
TTITLE6=Atlach=Nacha - Inspiration mix -
TTITLE7=Atlaquest - 第1章 -
EXTD=YEAR: 2003
EXTT0=
EXTT1=
EXTT2=
EXTT3=
EXTT4=
EXTT5=
EXTT6=
EXTT7=
PLAYORDER=
